<?xml version="1.0" standalone="no"?>
<!DOCTYPE svg PUBLIC "-//W3C//DTD SVG 1.1//EN" "http://www.w3.org/Graphics/SVG/1.1/DTD/svg11.dtd">
<svg xmlns="http://www.w3.org/2000/svg">
<defs >
<font id="Jost" horiz-adv-x="546" ><font-face
    font-family="Jost ExtraBold"
    units-per-em="1000"
    panose-1="0 0 0 0 0 0 0 0 0 0"
    ascent="1070"
    descent="-375"
    alphabetic="0" />
<glyph unicode=" " horiz-adv-x="300" />
<glyph unicode="!" horiz-adv-x="346" d="M162 700L117 241H258L372 700H162ZM53 68Q53 25 82 -1T159 -27Q205 -27 235 -1T265 68Q265 112 235 138T159 164Q112 164 83 138T53 68Z" />
<glyph unicode="&quot;" horiz-adv-x="518" d="M185 700L93 376H208L365 700H185ZM398 700L306 376H420L577 700H398Z" />
<glyph unicode="#" horiz-adv-x="665" d="M116 405L261 404L292 412H493L524 404H675L699 542H137L116 405ZM33 164H595L620 302H493L459 294H228L193 302H57L33 164ZM555 700L470 491L464 454L381 251L362 223L271 0H421L706 700H555ZM312 700L27 0H176L268 226L271
254L353 453L376 490L462 700H312Z" />
<glyph unicode="$" horiz-adv-x="615" d="M364 818L341 629H463L501 818H364ZM256 66L220 -112H357L377 66H256ZM500 483L650 562Q628 605 597 638T520 690T408 710Q339 710 278 685T176 617T128 516Q122 472 135 436T172 372T226 325T286 292Q315 280 343 268T389
240T402 199Q399 180 388 167T358 149T317 144Q282 143 257 158T212 198T175 259L33 163Q52 116 91 76T184 14T300 -10Q376 -10 442 13T551 82T603 198Q608 239 600 273T572 334T524 383T460 419Q437 428 411 437T365 456T332 480T324 517Q327 531 337 544T364
564T401 572Q424 572 442 560T474 528T500 483Z" />
<glyph unicode="%" horiz-adv-x="941" d="M80 530Q73 479 92 436T152 365T247 338Q303 338 350 364T430 434T469 530Q476 580 457 623T397 695T302 723Q246 723 199 696T119 626T80 530ZM219 529Q221 543 230 556T255 579T285 588Q301 588 312 579T327 558T331
532Q328 517 319 504T296 482T267 473Q250 473 238 482T222 503T219 529ZM539 172Q532 122 551 78T611 6T705 -21Q760 -21 808 5T889 75T928 171Q935 221 916 265T856 336T760 364Q705 364 658 338T579 268T539 172ZM678 171Q680 186 690 199T714 220T745 229Q760
228 769 220T785 199T789 173Q786 156 776 143T752 123T723 116Q707 116 697 124T681 144T678 171ZM745 700L79 0H263L931 700H745Z" />
<glyph unicode="&amp;" horiz-adv-x="753" d="M258 368L533 0H719L421 391Q399 417 383 440T356 484T350 528Q353 543 362 555T385 575T417 583Q436 583 447 575T463 554T469 529Q465 506 445 487T397 451T338 422Q310 408 274 396T201 367T132 326T78 269T50
189Q41 125 70 80T151 11T268 -14Q343 -15 409 9T533 73T637 161T726 258L624 348Q595 308 559 269T481 197T395 147T304 132Q277 132 260 141T235 166T230 205Q234 235 254 253T303 285T362 309T419 336Q457 359 492 381T554 426T599 478T622 546Q628 593 606
632T540 695T437 719Q374 719 321 695T233 630T190 541Q186 508 194 479T220 423T258 368Z" />
<glyph unicode="&apos;" horiz-adv-x="304" d="M185 700L93 376H208L365 700H185Z" />
<glyph unicode="(" horiz-adv-x="340" d="M277 780Q204 669 155 545T87 290Q69 166 80 42T133 -200H286Q250 -82 242 42T251 290Q272 420 321 542T435 779L277 780Z" />
<glyph unicode=")" horiz-adv-x="340" d="M118 -199Q191 -88 240 35T310 290Q328 414 316 538T262 781H111Q146 662 155 538T145 290Q124 160 76 38T-39 -199H118Z" />
<glyph unicode="*" horiz-adv-x="574" d="M565 604L330 492L343 412L590 453L565 604ZM516 297L369 476L302 432L375 204L516 297ZM222 206L366 427L306 476L107 303L222 206ZM85 454L322 413L359 488L156 603L85 454ZM299 700L298 452H380L461 700H299Z" />
<glyph unicode="+" horiz-adv-x="672" d="M67 190H616L645 357H96L67 190ZM316 553L220 -6H396L492 553H316Z" />
<glyph unicode="," horiz-adv-x="319" d="M98 109L-32 -147L97 -172L266 75L98 109Z" />
<glyph unicode="-" horiz-adv-x="219" d="M4 164H218L244 312H30L4 164Z" />
<glyph unicode="." horiz-adv-x="319" d="M44 75Q44 33 73 3T150 -27Q196 -27 226 3T257 75Q257 120 227 150T150 180Q103 180 74 150T44 75Z" />
<glyph unicode="/" horiz-adv-x="617" d="M532 700L-41 -149H133L701 700H532Z" />
<glyph unicode="0" horiz-adv-x="660" d="M254 350Q258 386 270 421T301 486T346 532T403 549Q425 548 440 535T463 502T473 456T475 403T472 350Q467 313 455 278T424 214T380 168T324 152Q299 152 285 164T262 197T251 244T249 297T254 350ZM70 350Q62 292 67
238T88 139T133 59T205 5T306 -14Q378 -15 438 13T543 91T617 206T656 350Q664 408 660 462T639 562T595 642T523 695T420 715Q348 715 289 687T184 609T110 493T70 350Z" />
<glyph unicode="1" horiz-adv-x="511" d="M115 477L296 518L207 0H392L515 716L144 645L115 477Z" />
<glyph unicode="2" horiz-adv-x="662" d="M-1 0H610L637 179L380 180L538 299Q587 336 621 381T664 486Q671 532 655 573T607 647T527 697T422 716Q330 716 264 678T156 576T101 436H289Q295 465 309 491T347 534T401 550Q420 549 433 543T454 525T465 501T465
473Q461 443 443 416T398 365T343 314L-1 0Z" />
<glyph unicode="3" horiz-adv-x="624" d="M309 338Q367 339 423 347T527 375T607 429T646 518Q655 577 626 621T541 690T414 715Q338 715 278 686T180 604T130 488L306 487Q312 506 325 523T357 550T401 561Q420 560 433 553T452 534T456 505Q454 484 442 469T410
444T367 428T320 421L309 338ZM304 -17Q385 -17 452 7T562 79T615 193Q623 251 600 289T535 351T434 384T317 396L304 300Q334 298 358 294T401 279T426 253T429 213Q425 187 410 170T373 144T326 136Q297 137 280 148T254 182T247 235H59Q55 183 69 138T115 59T194
4T304 -17Z" />
<glyph unicode="4" horiz-adv-x="712" d="M2 121L662 120L690 284H545L523 257L275 258L431 430L389 187L364 176L334 0H535L655 700H500L2 121Z" />
<glyph unicode="5" horiz-adv-x="649" d="M631 222Q638 286 617 337T552 418T452 450Q417 450 386 444T326 424L385 533L661 532L687 700H268L109 287Q144 299 180 308T251 321T316 325Q342 324 369 317T412 293T424 247Q419 216 399 198T347 172T282 164Q256
164 230 171T175 193T121 226L37 60Q74 40 116 23T207 -4T312 -14Q365 -14 417 1T516 46T592 118T631 222Z" />
<glyph unicode="6" horiz-adv-x="676" d="M258 250Q263 280 280 304T324 342T381 356Q409 355 429 341T458 303T463 251Q458 222 441 198T397 160T341 147Q312 147 292 160T263 198T258 250ZM411 695L189 460Q145 415 111 365T68 250Q58 167 89 107T182 15T325
-17Q405 -17 476 14T594 105T652 250Q657 298 645 339T607 412T545 460T468 478Q432 478 405 468T349 435L398 456L659 695H411Z" />
<glyph unicode="7" horiz-adv-x="607" d="M90 518H391L53 0H263L703 700H119L90 518Z" />
<glyph unicode="8" horiz-adv-x="632" d="M136 532Q129 484 146 448T195 388T269 351T353 339Q397 339 442 351T526 387T591 447T624 531Q631 579 615 613T568 670T494 706T408 718Q343 718 285 697T185 635T136 532ZM312 512Q314 531 325 546T353 571T393 581Q411
581 423 572T440 547T442 514Q439 495 429 479T401 453T362 444Q343 444 331 453T314 479T312 512ZM53 191Q46 141 64 102T116 37T197 -3T293 -17Q343 -18 393 -5T485 35T554 100T590 190Q597 244 578 283T521 348T440 386T352 398Q306 398 257 386T165 349T91
284T53 191ZM250 220Q254 240 267 257T300 286T344 298Q365 298 380 287T401 258T404 221Q401 198 388 179T355 150T310 139Q288 139 274 150T253 179T250 220Z" />
<glyph unicode="9" horiz-adv-x="676" d="M494 450Q489 420 471 396T427 358T372 345Q342 345 322 359T293 397T289 450Q293 479 311 503T355 540T412 554Q439 553 459 540T488 502T494 450ZM342 5L563 240Q606 286 640 336T683 450Q693 533 662 593T569 686T428
718Q345 718 274 687T157 595T100 450Q94 403 106 361T144 288T206 240T284 223Q319 222 345 232T402 266L354 245L93 5H342Z" />
<glyph unicode=":" horiz-adv-x="319" d="M40 75Q40 33 69 3T146 -27Q192 -27 222 3T253 75Q253 120 223 150T146 180Q99 180 70 150T40 75ZM103 448Q103 404 132 374T209 344Q256 344 286 374T316 448Q316 492 286 522T209 553Q162 553 133 523T103 448Z" />
<glyph unicode=";" horiz-adv-x="400" d="M159 440Q159 397 188 367T265 336Q312 336 342 366T372 440Q372 484 342 514T265 544Q218 544 189 514T159 440ZM126 109L-4 -147L125 -172L294 75L126 109Z" />
<glyph unicode="&lt;" horiz-adv-x="621" d="M316 266L594 363L626 539L91 326L70 209L532 -5L560 159L316 266Z" />
<glyph unicode="=" horiz-adv-x="610" d="M34 67H547L573 215H60L34 67ZM72 290H585L611 438H98L72 290Z" />
<glyph unicode="&gt;" horiz-adv-x="621" d="M343 268L63 168L32 -9L567 204L587 322L126 535L98 371L343 268Z" />
<glyph unicode="?" horiz-adv-x="628" d="M468 501Q462 470 435 446T367 406T278 390H247L237 211H379L396 284Q450 297 502 324T592 394T639 500Q646 552 630 593T581 662T504 706T412 723Q353 723 301 707T202 660T115 590L215 490Q248 528 294 553T388 578Q415
577 434 568T463 541T468 501ZM173 65Q173 27 203 1T278 -26Q321 -26 351 0T382 65Q382 103 352 130T278 157Q235 157 204 130T173 65Z" />
<glyph unicode="@" horiz-adv-x="747" d="M349 320Q351 340 363 366T393 409T427 424Q438 422 443 413T449 390T448 363Q446 342 434 316T404 273T369 259Q358 261 353 270T348 292T349 320ZM217 313Q212 271 220 234T253 175T322 153Q367 153 405 183T468 263T499
370Q503 407 494 443T462 505T402 530Q356 531 317 501T251 420T217 313ZM40 320Q29 249 42 186T92 75T187 -1T327 -30Q394 -30 451 -17T559 21L535 122Q492 105 448 93T353 81Q274 82 229 113T168 199T164 320Q174 381 201 435T271 529T368 593T487 616Q539 616
574 597T629 547T654 474T651 391Q649 362 641 336T621 289T595 257T569 250Q562 251 559 256T556 269T558 287Q558 293 560 300T564 314L619 520H492L437 304L447 263Q443 230 453 203T486 160T546 142Q590 141 629 159T698 210T748 289T775 390Q785 453 771 512T721
620T628 697T494 726Q407 726 330 694T193 606T92 476T40 320Z" />
<glyph unicode="A" horiz-adv-x="734" d="M182 111H544L563 256H212L182 111ZM412 412L466 202L450 153L498 0H710L467 750L-33 0H189L294 158L289 203L412 412Z" />
<glyph unicode="B" horiz-adv-x="675" d="M239 342H380Q448 342 508 361T609 420T659 520Q666 566 650 600T600 657T523 690T430 700H162L42 0H340Q417 0 482 19T589 80T642 194Q649 248 631 286T575 349T491 386T397 398H250L231 293L365 292Q383 292 399 289T428
278T446 257T450 225Q445 195 427 179T384 155T331 148H257L328 552H391Q424 552 442 537T456 491Q452 470 439 455T405 433T360 425H254L239 342Z" />
<glyph unicode="C" horiz-adv-x="685" d="M273 350Q280 391 300 424T351 483T419 520T497 534Q539 534 572 522T631 490T678 443L709 650Q666 681 618 699T504 718Q418 718 345 691T211 615T112 498T63 350Q51 271 69 205T131 88T240 10T389 -18Q458 -18 510 1T610
51L639 256Q612 233 579 212T508 179T423 167Q383 167 353 180T302 219T274 278T273 350Z" />
<glyph unicode="D" horiz-adv-x="727" d="M161 700L42 0H241L361 700H161ZM303 0Q387 0 460 24T589 95T682 205T731 350Q742 428 725 492T666 603T559 675T411 700H290L260 531H385Q423 531 453 519T503 485T530 429T531 350Q523 303 503 270T453 214T388 181T313
170H200L169 0H303Z" />
<glyph unicode="E" horiz-adv-x="601" d="M170 0H515L543 158H197L170 0ZM263 542H608L636 700H290L263 542ZM219 287H545L572 440H246L219 287ZM161 700L42 0H224L345 700H161Z" />
<glyph unicode="F" horiz-adv-x="552" d="M261 534H568L597 700H290L261 534ZM215 263L512 262L539 415H242L215 263ZM161 700L42 0H224L345 700H161Z" />
<glyph unicode="G" horiz-adv-x="802" d="M427 246H587Q574 222 557 203T519 170T471 149T411 141Q368 141 337 158T287 205T263 271T263 350Q271 395 292 431T343 495T411 537T492 552Q542 552 571 527T616 462L801 546Q770 596 729 635T633 696T510 718Q426
718 351 692T214 617T114 500T63 350Q51 271 69 203T131 84T242 3T390 -26Q483 -26 556 7T682 99T764 233T804 392H452L427 246Z" />
<glyph unicode="H" horiz-adv-x="784" d="M135 280H667L697 453H165L135 280ZM617 700L498 0H688L809 700H617ZM161 700L42 0H232L353 700H161Z" />
<glyph unicode="I" horiz-adv-x="332" d="M161 700L42 0H237L357 700H161Z" />
<glyph unicode="J" horiz-adv-x="346" d="M-112 -51L-234 -184Q-208 -201 -176 -214T-108 -236T-32 -244Q17 -245 63 -234T148 -200T211 -140T245 -52L373 700H162L40 -5Q35 -41 12 -62T-39 -83Q-59 -84 -78 -74T-112 -51Z" />
<glyph unicode="K" horiz-adv-x="718" d="M161 700L42 0H241L361 700H161ZM575 700L248 370L469 0H694L472 368L804 700H575Z" />
<glyph unicode="L" horiz-adv-x="535" d="M162 700L42 0H508L537 166H261L353 700H162Z" />
<glyph unicode="M" horiz-adv-x="888" d="M301 320L432 64L646 313L629 0H832L841 741L472 336L247 735L2 0H206L301 320Z" />
<glyph unicode="N" horiz-adv-x="775" d="M616 700L554 344L167 733L41 0H225L287 356L677 -33L802 700H616Z" />
<glyph unicode="O" horiz-adv-x="806" d="M265 350Q272 389 290 424T336 485T399 527T476 542Q516 541 543 525T587 482T608 421T607 350Q599 311 581 276T536 215T474 173T400 159Q358 159 330 175T286 218T265 279T265 350ZM63 350Q52 273 69 206T128 86T233
4T379 -26Q460 -26 533 2T665 82T760 202T810 350Q821 427 803 494T743 611T638 689T495 718Q412 718 340 691T209 614T112 497T63 350Z" />
<glyph unicode="P" horiz-adv-x="626" d="M161 700L42 0H232L353 700H161ZM256 543H392Q418 542 436 533T463 507T467 466Q462 440 447 424T407 398T356 388H229L201 231H340Q425 232 492 259T601 338T650 465Q658 540 632 592T549 671T409 700H282L256 543Z" />
<glyph unicode="Q" horiz-adv-x="859" d="M265 350Q272 390 291 424T338 485T402 527T479 542Q525 541 556 523T605 472T627 402T626 325Q619 287 601 254T554 195T492 156T416 143Q375 143 344 159T292 205T265 271T265 350ZM63 350Q52 273 69 206T129 86T236
4T383 -26Q465 -26 537 2T667 82T761 202T810 350Q821 427 805 493T746 610T642 689T498 718Q417 718 344 691T211 614T113 498T63 350ZM367 300L644 -16H835L550 300H367Z" />
<glyph unicode="R" horiz-adv-x="653" d="M282 308L406 0H623L473 308H282ZM161 700L42 0H232L353 700H161ZM254 536H391Q416 535 435 526T462 500T466 459Q461 432 446 415T406 389T355 380H228L201 231H356Q440 231 507 259T615 341T666 465Q674 537 648 589T565
671T425 700H282L254 536Z" />
<glyph unicode="S" horiz-adv-x="629" d="M172 256L30 161Q48 106 88 65T183 -1T305 -26Q358 -26 408 -11T501 33T570 106T604 204Q608 242 600 276T572 336T524 384T459 418Q437 427 413 436T368 455T337 479T329 510Q331 525 342 535T368 551T403 556Q427 556
446 547T480 522T507 483L659 563Q641 604 609 640T530 697T417 718Q348 718 287 694T184 624T134 511Q129 466 142 431T179 369T231 323T289 291Q325 276 352 264T393 237T402 200Q399 181 387 168T356 148T315 140Q282 140 256 155T209 196T172 256Z" />
<glyph unicode="T" horiz-adv-x="572" d="M63 526H254L163 0H356L447 526H636L666 700H94L63 526Z" />
<glyph unicode="U" horiz-adv-x="701" d="M157 700L77 230Q69 167 83 117T131 34T214 -16T325 -34Q388 -34 442 -17T540 33T612 116T652 230L731 700H540L461 247Q455 217 440 193T402 154T344 140Q311 140 294 155T272 194T269 246L349 700H157Z" />
<glyph unicode="V" horiz-adv-x="734" d="M398 324L311 700H89L345 -49L833 700H604L398 324Z" />
<glyph unicode="W" horiz-adv-x="1055" d="M742 330L624 738L375 333L319 700H94L281 -45L567 341L730 -44L1149 700H915L742 330Z" />
<glyph unicode="X" horiz-adv-x="704" d="M540 700L415 517L351 700H119L277 360L-18 0H224L372 211L452 0H685L510 352L783 700H540Z" />
<glyph unicode="Y" horiz-adv-x="670" d="M543 700L384 460L307 700H91L260 285L210 0H407L453 276L771 700H543Z" />
<glyph unicode="Z" horiz-adv-x="623" d="M123 526H370L-24 0H547L576 166L309 167L709 700H153L123 526Z" />
<glyph unicode="[" horiz-adv-x="369" d="M335 632H432L455 780H188L33 -220H301L324 -72H226L335 632Z" />
<glyph unicode="\" horiz-adv-x="539" d="M108 700L337 0H497L268 700H108Z" />
<glyph unicode="]" horiz-adv-x="369" d="M88 -72H-10L-33 -220H236L390 780H121L98 632H197L88 -72Z" />
<glyph unicode="^" horiz-adv-x="494" d="M320 565L365 444H512L392 710H286L75 445H233L320 565Z" />
<glyph unicode="_" horiz-adv-x="524" d="M-56 -159H472L490 -50H-37L-56 -159Z" />
<glyph unicode="`" horiz-adv-x="363" d="M129 655L284 503L382 545L259 709L129 655Z" />
<glyph unicode="a" horiz-adv-x="541" d="M187 140Q188 156 199 166T228 182T265 188Q295 188 320 180T366 153L377 229Q361 243 336 254T281 271T221 277Q167 276 123 260T51 212T16 134Q10 88 28 56T82 7T160 -9Q207 -9 245 8T308 55T344 128L337 188Q330 161
315 141T278 109T231 99Q219 99 209 104T192 118T187 140ZM140 308Q156 316 181 325T235 340T292 345Q310 344 322 340T342 328T353 308T354 282L303 0H466L521 322Q527 373 501 407T426 457T325 475Q262 475 206 459T102 424L140 308Z" />
<glyph unicode="b" horiz-adv-x="611" d="M329 780H157L24 0H195L329 780ZM596 230Q605 296 585 350T523 437T422 470Q376 470 337 451T267 400T216 324T190 231Q184 183 191 140T218 63T271 10T350 -10Q409 -10 462 21T551 106T596 230ZM418 232Q413 203 396
179T354 141T303 128Q284 128 270 136T247 159T235 192T235 230Q238 252 248 270T273 303T308 326T347 334Q373 334 389 319T413 280T418 232Z" />
<glyph unicode="c" horiz-adv-x="477" d="M216 230Q221 259 239 283T285 321T345 336Q368 336 388 329T427 308T457 272L479 436Q452 451 419 460T340 470Q263 470 199 440T92 357T41 231Q31 159 59 105T144 21T275 -10Q322 -10 356 -1T419 26L440 188Q423 168
401 155T355 133T304 125Q274 126 253 139T221 176T216 230Z" />
<glyph unicode="d" horiz-adv-x="611" d="M497 780L363 0H535L669 780H497ZM40 231Q31 164 51 110T113 23T216 -9Q262 -9 301 9T371 60T421 136T447 230Q453 277 447 320T420 397T366 450T287 470Q227 470 174 439T85 354T40 231ZM221 230Q226 258 242 281T283
320T335 334Q353 333 367 324T390 301T402 269T403 231Q400 208 389 190T363 158T330 135T291 128Q265 128 248 142T224 180T221 230Z" />
<glyph unicode="e" horiz-adv-x="573" d="M288 -10Q380 -10 445 26T548 132L395 163Q377 137 353 124T293 110Q263 110 244 124T217 165T217 224Q224 257 232 283T254 325T285 351T328 361Q351 361 364 351T384 322T391 276Q391 268 388 258T378 237L413 283H128V194H557Q561
210 564 229T567 266Q567 329 542 374T467 445T344 470Q278 470 223 450T127 393T65 307T43 200Q43 135 73 88T157 15T288 -10Z" />
<glyph unicode="f" horiz-adv-x="350" d="M62 460L38 320H370L394 460H62ZM406 621L488 743Q472 756 454 768T412 789T355 798Q297 798 254 777T184 718T149 631L42 0H206L307 584Q309 601 317 614T337 637T366 646Q379 645 388 638T406 621Z" />
<glyph unicode="g" horiz-adv-x="603" d="M5 -34Q5 -98 30 -144T106 -216T238 -241Q314 -241 375 -213T476 -129T529 10L606 460H442L364 11Q359 -23 342 -49T299 -90T241 -104Q216 -104 200 -97T177 -74T167 -35L5 -34ZM42 239Q34 173 54 120T116 37T219 6Q264
6 303 23T372 72T423 146T449 238Q455 285 448 327T420 401T366 451T287 470Q227 470 175 441T86 360T42 239ZM222 237Q227 264 242 286T282 322T335 334Q354 334 368 327T390 307T403 277T405 239Q401 217 390 200T365 169T332 150T294 144Q268 144 251 156T226
189T222 237Z" />
<glyph unicode="h" horiz-adv-x="564" d="M330 780H157L24 0H196L330 780ZM365 280L315 0H486L538 306Q545 357 536 396T496 458T408 480Q349 480 310 452T249 378T217 281L244 280Q248 300 259 317T287 345T326 355Q346 353 354 343T365 315T365 280Z" />
<glyph unicode="i" horiz-adv-x="273" d="M118 627Q118 586 146 563T216 539Q257 539 286 562T315 627Q315 667 287 692T217 717Q176 717 147 692T118 627ZM105 460L26 0H193L272 460H105Z" />
<glyph unicode="j" horiz-adv-x="270" d="M117 627Q117 586 145 562T215 537Q256 537 284 561T313 627Q313 667 285 692T215 717Q174 717 146 692T117 627ZM-80 -65L-161 -188Q-146 -202 -128 -214T-84 -235T-28 -244Q29 -245 72 -224T142 -164T178 -76L269 460H104L20
-29Q17 -45 10 -60T-8 -83T-36 -91Q-51 -91 -62 -84T-80 -65Z" />
<glyph unicode="k" horiz-adv-x="600" d="M157 780L24 0H187L321 780H157ZM423 460L204 275L372 0H563L400 266L630 460H423Z" />
<glyph unicode="l" horiz-adv-x="273" d="M157 780L24 0H195L330 780H157Z" />
<glyph unicode="m" horiz-adv-x="807" d="M780 298Q786 346 780 385T746 448T665 472Q616 472 577 451T509 396Q503 418 490 435T453 462T393 472Q363 472 338 462T293 437T257 398L267 460H103L23 0H188L238 284Q241 307 251 322T274 346T306 354Q323 354 330
343T338 315T337 281L287 0H458L506 281Q509 304 519 320T544 345T576 354Q595 354 602 343T609 315T607 280L557 0H730L780 298Z" />
<glyph unicode="n" horiz-adv-x="573" d="M365 280L315 0H494L545 298Q552 348 541 387T496 449T407 472Q359 472 324 451T265 398L275 460H103L23 0H196L245 282Q248 304 258 320T284 346T321 355Q344 355 353 344T364 316T365 280Z" />
<glyph unicode="o" horiz-adv-x="584" d="M47 231Q38 159 66 106T151 21T280 -10Q355 -10 418 20T524 104T576 230Q585 301 557 355T473 440T344 472Q270 472 206 442T99 357T47 231ZM223 230Q227 258 242 280T281 316T332 330Q357 329 373 315T397 279T401 231Q396
203 381 180T342 143T292 131Q266 131 250 145T226 181T223 230Z" />
<glyph unicode="p" horiz-adv-x="611" d="M158 -220L274 460H103L-14 -220H158ZM596 230Q605 298 586 355T525 445T422 478Q374 477 335 458T269 403T223 324T198 230Q192 183 197 139T218 60T267 3T349 -18Q408 -18 462 14T551 102T596 230ZM418 231Q414 203
397 181T355 147T305 135Q286 135 272 142T248 162T235 192T235 229Q237 251 247 269T273 299T308 319T346 326Q370 325 388 313T413 279T418 231Z" />
<glyph unicode="q" horiz-adv-x="611" d="M326 -220H497L614 460H442L326 -220ZM40 230Q31 162 50 106T111 16T215 -17Q261 -17 300 2T368 57T415 136T440 230Q445 277 441 321T419 400T369 457T289 478Q227 478 174 447T86 359T40 230ZM221 230Q225 257 242 279T282
314T334 326Q352 325 366 318T389 298T401 269T403 231Q400 209 389 192T364 161T331 141T293 135Q266 136 249 148T225 181T221 230Z" />
<glyph unicode="r" horiz-adv-x="423" d="M271 460H103L23 0H192L271 460ZM375 283L468 430Q455 448 435 460T389 473Q349 472 311 445T246 373T210 281L228 211Q232 237 246 259T280 296T324 310Q341 310 353 302T375 283Z" />
<glyph unicode="s" horiz-adv-x="458" d="M86 175L9 58Q45 35 83 16T162 -12T252 -21Q304 -21 346 -4T413 46T443 131Q447 169 432 196T391 240T333 272Q308 282 286 289T251 305T240 331Q241 342 253 349T283 356Q313 356 347 338T408 293L471 407Q443 424 412
438T347 461T273 470Q226 469 185 454T117 410T85 336Q81 296 95 268T136 220T193 190Q220 181 238 173T266 156T274 133Q273 119 262 111T234 101Q214 100 191 108T141 132T86 175Z" />
<glyph unicode="t" horiz-adv-x="331" d="M56 460L31 320H356L380 460H56ZM163 620L57 0H220L328 620H163Z" />
<glyph unicode="u" horiz-adv-x="573" d="M233 180L283 460H103L52 162Q46 111 56 72T100 11T190 -11Q240 -11 274 9T333 63L323 0H494L574 460H402L353 178Q349 154 338 138T310 115T273 107Q252 107 243 117T232 144T233 180Z" />
<glyph unicode="v" horiz-adv-x="536" d="M50 460L244 -62L600 460H417L287 230L231 460H50Z" />
<glyph unicode="w" horiz-adv-x="762" d="M42 460L201 -29L396 224L502 -29L830 460H649L525 246L437 498L264 248L215 460H42Z" />
<glyph unicode="x" horiz-adv-x="549" d="M404 460L313 353L256 460H66L206 244L-22 0H181L279 123L348 0H530L383 232L598 460H404Z" />
<glyph unicode="y" horiz-adv-x="529" d="M598 460H420L212 89L304 88L222 460H41L168 33L16 -219H190L598 460Z" />
<glyph unicode="z" horiz-adv-x="524" d="M257 305L-17 0H450L477 157H308L567 460H111L84 305H257Z" />
<glyph unicode="{" horiz-adv-x="411" d="M361 595Q364 616 379 631T416 646H448L468 780H365Q319 779 278 764T210 718T174 641L147 463Q140 414 122 390T68 353L50 229Q84 214 92 190T96 119L69 -60Q62 -107 82 -137T141 -183T223 -200L318 -199L337 -65L301
-64Q286 -64 277 -58T265 -40T264 -15L281 90Q286 125 286 160T277 226T239 276T163 301L160 281Q211 284 244 302T296 350T326 415T345 490L361 595Z" />
<glyph unicode="|" horiz-adv-x="365" d="M200 785L45 -215H220L374 785H200Z" />
<glyph unicode="}" horiz-adv-x="411" d="M109 -15Q105 -36 91 -50T53 -65H21L2 -200H105Q151 -199 191 -184T260 -138T294 -60L322 119Q328 167 346 191T401 229L419 353Q384 367 376 391T372 463L400 640Q407 687 386 717T328 763T246 780H153L134 645H168Q183
644 192 638T204 620T206 596L188 491Q183 456 183 420T192 354T230 304T307 280L309 300Q259 296 226 278T173 230T143 165T126 91L109 -15Z" />
<glyph unicode="~" horiz-adv-x="558" d="M165 159Q164 166 163 173T164 190Q167 204 179 217T211 232Q223 232 235 227T259 215T284 199Q314 177 342 163T401 148Q440 147 470 162T523 203Q542 224 552 251T565 306Q565 313 565 320T564 334L432 341Q434 333
435 323T435 304Q432 292 422 281T398 269Q384 268 369 279T336 302Q317 316 299 327T262 345T221 352Q172 353 139 336T81 292Q62 270 51 244T36 190Q35 183 35 177T37 165L165 159Z" />
<glyph unicode="&#xa0;" horiz-adv-x="300" />
<glyph unicode="&#xa1;" horiz-adv-x="346" d="M213 -224L256 234H116L2 -224H213ZM319 406Q324 449 298 475T227 503Q185 503 151 477T112 408Q106 366 133 339T202 312Q246 311 280 337T319 406Z" />
<glyph unicode="&#xa2;" horiz-adv-x="562" d="M195 38L156 -112H304L319 38H195ZM225 230Q230 260 249 284T297 322T357 336Q396 336 421 318T467 270L491 436Q463 452 429 461T353 470Q276 470 211 440T103 357T50 231Q40 159 67 106T150 21T282 -10Q324 -10
360 -1T424 24L448 190Q421 164 387 144T311 125Q282 126 261 138T230 174T225 230ZM275 578L261 428H386L424 578H275Z" />
<glyph unicode="&#xa3;" horiz-adv-x="602" d="M100 370L81 261H458L477 370H100ZM472 464L633 521Q633 558 618 593T573 654T501 695T408 710Q360 710 314 698T229 662T166 603T135 524Q132 494 138 472T155 428T178 387T195 346T198 299Q189 242 165 192T103
95T20 0H504L532 158H194L114 52Q148 61 188 81T264 130T326 194T358 272Q361 299 356 322T340 367T321 407T307 446T307 489Q311 511 325 527T359 552T403 561Q426 560 440 552T461 528T470 497T472 464Z" />
<glyph unicode="&#xa4;" horiz-adv-x="558" d="M76 505L165 403L234 463L151 571L76 505ZM66 31L178 131L123 199L9 102L66 31ZM488 403L601 501L545 571L432 472L488 403ZM374 135L460 32L530 93L448 199L374 135ZM72 301Q63 236 85 182T154 94T269 60Q336 60
393 92T489 179T537 300Q546 364 524 418T454 506T340 540Q272 540 215 508T119 421T72 301ZM223 299Q227 323 241 342T276 373T323 384Q345 383 360 372T382 342T386 301Q382 278 367 258T331 228T286 218Q262 218 247 229T225 258T223 299Z" />
<glyph unicode="&#xa5;" horiz-adv-x="676" d="M59 259H648L667 365H78L59 259ZM34 109H623L641 215H52L34 109ZM546 700L385 460L309 700H92L262 283L212 0H410L456 277L771 700H546Z" />
<glyph unicode="&#xa6;" horiz-adv-x="365" d="M188 695L141 422H315L362 695H188ZM291 279H117L69 5H243L291 279Z" />
<glyph unicode="&#xa7;" horiz-adv-x="609" d="M485 541L573 654Q556 676 527 693T463 719T391 728Q344 727 298 710T218 659T178 576Q174 547 180 525T201 484T235 452T275 430Q296 419 322 409T366 383T379 338Q375 318 362 305T331 284T297 270L289 226Q329
227 370 236T447 263T505 310T535 379Q540 416 526 444T484 493T420 524Q406 527 392 530T363 537T342 546T335 561Q336 569 344 574T364 584T389 588Q404 588 422 582T456 565T485 541ZM133 178L45 64Q72 36 105 17T180 -14T273 -26Q310 -26 347 -16T417 13T472
61T499 130Q504 167 491 196T453 247T396 283Q380 289 359 296T320 312T290 334T282 369Q285 389 298 402T329 423T365 438L371 479Q331 478 289 469T209 442T148 396T118 326Q113 289 131 262T181 216T249 188Q269 183 288 178T320 165T331 143Q329 134 322 128T302
118T277 115Q255 114 232 121T183 142T133 178Z" />
<glyph unicode="&#xa8;" horiz-adv-x="508" d="M362 625Q357 586 383 561T448 534Q486 534 518 559T554 623Q559 662 533 687T468 714Q430 714 398 689T362 625ZM113 625Q108 586 134 561T200 534Q238 534 269 559T305 623Q310 662 285 687T220 714Q181 714 149
689T113 625Z" />
<glyph unicode="&#xa9;" horiz-adv-x="776" d="M333 350Q338 383 358 408T407 446T467 460Q505 460 531 444T575 406L592 530Q566 549 537 560T467 571Q400 571 343 543T251 465T206 351Q198 287 221 238T293 159T409 130Q449 130 480 141T538 170L554 294Q530
273 498 257T425 241Q394 242 372 256T339 294T333 350ZM131 350Q141 413 171 469T248 568T353 635T478 660Q542 659 591 634T672 565T716 466T720 350Q709 287 679 231T602 132T497 65T373 41Q308 41 259 66T178 135T134 234T131 350ZM74 350Q65 277 82 213T140
98T239 19T375 -10Q451 -10 519 17T642 94T731 209T776 350Q785 423 768 487T710 602T611 681T476 710Q399 710 331 683T208 606T119 491T74 350Z" />
<glyph unicode="&#xaa;" horiz-adv-x="271" d="M165 529Q167 540 180 548T205 556Q221 556 232 552T255 538L261 577Q248 586 228 593T185 600Q147 600 115 581T78 528Q74 495 96 476T153 456Q188 456 211 475T243 524L240 555Q233 535 219 522T186 509Q177 509
171 514T165 529ZM144 617Q156 623 177 631T221 638Q237 636 243 627T249 604L222 461L305 460L332 630Q335 668 305 686T233 705Q203 705 176 698T125 681L144 617Z" />
<glyph unicode="&#xab;" horiz-adv-x="534" d="M376 256L556 442L459 515L250 260L377 -5L489 62L376 256ZM166 256L346 442L250 515L40 260L167 -5L279 62L166 256Z" />
<glyph unicode="&#xac;" horiz-adv-x="639" d="M82 265H485L466 175H583L623 412H106L82 265Z" />
<glyph unicode="&#xad;" horiz-adv-x="203" d="M13 201H210L222 275H25L13 201Z" />
<glyph unicode="&#xae;" horiz-adv-x="776" d="M407 319L456 150H587L506 319H407ZM309 570L244 150H360L426 570H309ZM369 472L449 471Q471 470 484 461T495 430Q491 410 472 399T430 387H354L340 297L434 298Q508 299 558 336T617 438Q625 499 582 534T467 570H384L369
472ZM131 350Q141 413 171 469T248 568T353 635T478 660Q542 659 591 634T672 565T716 466T720 350Q709 287 679 231T602 132T497 65T373 41Q308 41 259 66T178 135T134 234T131 350ZM74 350Q65 277 82 213T140 98T239 19T375 -10Q451 -10 519 17T642 94T731 209T776
350Q785 423 768 487T710 602T611 681T476 710Q399 710 331 683T208 606T119 491T74 350Z" />
<glyph unicode="&#xaf;" horiz-adv-x="522" d="M146 564H515L539 712H169L146 564Z" />
<glyph unicode="&#xb0;" horiz-adv-x="292" d="M89 597Q84 562 97 534T139 489T204 473Q242 473 274 489T327 532T353 594Q358 631 345 658T303 703T237 720Q200 720 168 704T114 661T89 597ZM172 596Q174 610 183 622T206 641T233 648Q251 647 261 632T271 597Q268
584 258 572T235 553T209 547Q190 547 180 561T172 596Z" />
<glyph unicode="&#xb1;" horiz-adv-x="619" d="M46 8H543L566 153H68L46 8ZM95 329H592L617 482H119L95 329ZM302 620L235 191L409 190L475 620H302Z" />
<glyph unicode="&#xb2;" horiz-adv-x="413" d="M41 283L409 282L428 389L275 390L372 462Q399 484 420 511T447 573Q452 610 436 642T385 693T303 712Q248 712 208 689T143 627T108 544H223Q227 561 236 577T259 602T292 611Q305 610 314 604T326 587T327 566Q323
538 300 516T252 470L41 283Z" />
<glyph unicode="&#xb3;" horiz-adv-x="370" d="M210 483Q255 483 299 492T374 525T413 590Q419 627 402 652T351 693T275 708Q206 707 162 669T104 573L211 572Q217 590 231 603T267 616Q284 616 293 607T301 585Q298 568 285 557T254 540T217 533L210 483ZM205
269Q253 269 293 284T360 327T392 395Q397 431 384 453T344 489T283 510T213 518L203 460Q227 459 245 454T274 437T280 409Q276 386 256 373T215 362Q190 363 180 378T169 420H58Q56 379 71 345T120 290T205 269Z" />
<glyph unicode="&#xb4;" horiz-adv-x="363" d="M400 650L278 708L111 552L205 503L400 650Z" />
<glyph unicode="&#xb5;" horiz-adv-x="587" d="M282 460H103L-31 -320H135L191 18Q206 6 219 2T248 -2Q270 -2 293 12T332 50L323 0H496L572 460H406L360 212Q356 188 347 172T321 147T285 138Q264 138 252 147T237 172T236 210L282 460Z" />
<glyph unicode="&#xb6;" horiz-adv-x="678" d="M297 271L213 -220H363L503 598H548L408 -220H558L716 700H371Q307 700 252 675T160 601T113 486Q104 421 126 375T193 302T297 271Z" />
<glyph unicode="&#xb7;" horiz-adv-x="319" d="M75 277Q71 250 81 227T114 189T165 174Q195 173 220 187T263 224T285 276Q289 303 277 326T244 365T193 380Q163 380 138 366T96 328T75 277Z" />
<glyph unicode="&#xb8;" horiz-adv-x="394" d="M157 74L40 -127Q67 -119 92 -116T132 -113Q143 -113 155 -115T178 -123T187 -142Q186 -154 175 -162T150 -174T123 -178Q107 -178 85 -172T44 -153L-15 -227Q22 -249 59 -259T141 -268Q174 -268 207 -255T263 -218T292
-156Q296 -126 285 -102T254 -65T209 -49Q198 -49 188 -51T168 -55L286 70L157 74Z" />
<glyph unicode="&#xb9;" horiz-adv-x="471" d="M191 560L300 584L247 274H359L433 704L208 660L191 560Z" />
<glyph unicode="&#xba;" horiz-adv-x="269" d="M89 581Q82 527 116 494T205 461Q243 461 275 476T328 518T354 579Q359 615 345 641T302 684T237 700Q200 700 168 685T115 643T89 581ZM176 579Q178 592 186 604T208 623T233 630Q249 629 258 614T266 581Q264 568
255 557T234 538T209 532Q192 532 183 547T176 579Z" />
<glyph unicode="&#xbb;" horiz-adv-x="534" d="M192 254L13 69L109 -4L317 250L191 516L79 448L192 254ZM402 254L222 69L319 -4L528 250L402 516L288 448L402 254Z" />
<glyph unicode="&#xbc;" horiz-adv-x="818" d="M704 700L79 0H191L815 700H704ZM89 560L198 584L145 274H256L330 704L107 660L89 560ZM379 73H776L794 170H679L666 154H485L379 73ZM507 112L638 255L612 100L595 94L580 0H700L772 420H679L375 70L507 112Z" />
<glyph unicode="&#xbd;" horiz-adv-x="889" d="M704 700L79 0H191L815 700H704ZM89 560L198 584L145 274H256L330 704L107 660L89 560ZM465 3L833 2L851 109L697 110L793 182Q821 204 842 231T869 293Q875 330 858 362T807 413T725 432Q670 432 630 409T565 347T531
264H646Q649 281 658 297T681 322T713 331Q728 330 736 324T747 307T750 286Q746 258 723 236T675 190L465 3Z" />
<glyph unicode="&#xbe;" horiz-adv-x="870" d="M765 700L141 0H252L877 700H765ZM219 483Q265 483 309 492T385 525T423 590Q429 627 411 652T360 693T284 708Q214 707 169 669T111 573L220 572Q226 590 240 603T277 616Q294 616 302 607T309 585Q306 568 293
557T262 540T226 533L219 483ZM213 269Q261 269 301 284T369 327T402 395Q407 431 393 453T353 489T292 510T222 518L212 460Q236 459 254 454T281 437T288 409Q285 386 265 373T224 362Q200 363 190 378T179 420H66Q63 379 79 345T129 290T213 269ZM430 73H832L849
170H731L718 154H539L430 73ZM560 112L689 255L663 100L650 94L633 0H755L828 420H732L426 70L560 112Z" />
<glyph unicode="&#xbf;" horiz-adv-x="628" d="M227 200Q233 230 260 254T328 294T417 310H448L458 491H317L298 417Q243 404 191 377T102 306T57 201Q50 149 66 108T114 38T191 -6T284 -21Q342 -22 394 -6T493 41T580 110L481 210Q447 173 402 147T308 123Q280
123 260 132T232 158T227 200ZM518 634Q523 672 495 699T425 727Q396 727 371 715T329 682T310 636Q304 600 331 573T401 545Q429 545 454 557T496 590T518 634Z" />
<glyph unicode="&#xc0;" horiz-adv-x="734" d="M182 112L544 111L563 256H212L182 112ZM416 412L466 202L446 153L498 0H710L467 750L-33 0H189L294 158L289 203L416 412ZM339 960L491 807L590 851L469 1015L339 960Z" />
<glyph unicode="&#xc1;" horiz-adv-x="734" d="M182 112L544 111L563 256H212L182 112ZM416 412L466 202L446 153L498 0H710L467 750L-33 0H189L294 158L289 203L416 412ZM668 955L548 1013L378 858L471 808L668 955Z" />
<glyph unicode="&#xc2;" horiz-adv-x="734" d="M182 112L544 111L563 256H212L182 112ZM416 412L466 202L446 153L498 0H710L467 750L-33 0H189L294 158L289 203L416 412ZM496 882L564 800L695 877L511 1020L288 884L398 800L496 882Z" />
<glyph unicode="&#xc3;" horiz-adv-x="734" d="M182 112L544 111L563 256H212L182 112ZM416 412L466 202L446 153L498 0H710L467 750L-33 0H189L294 158L289 203L416 412ZM289 881L358 808Q362 817 369 828T386 849T412 859Q436 861 457 848T499 821T545 805Q577
804 605 818T657 852T694 892L627 978Q610 958 592 941T551 923Q532 922 518 929T489 948T460 967T423 977Q390 977 365 963T320 927T289 881Z" />
<glyph unicode="&#xc4;" horiz-adv-x="734" d="M182 112L544 111L563 256H212L182 112ZM416 412L466 202L446 153L498 0H710L467 750L-33 0H189L294 158L289 203L416 412ZM534 826Q529 786 554 761T619 735Q657 735 689 760T727 823Q732 862 707 888T642 915Q604
915 572 890T534 826ZM231 834Q226 795 251 769T316 742Q354 742 386 767T423 831Q428 870 403 896T339 922Q301 923 269 898T231 834Z" />
<glyph unicode="&#xc5;" horiz-adv-x="734" d="M182 112L544 111L563 256H212L182 112ZM416 412L466 202L446 153L498 0H710L467 750L-33 0H189L294 158L289 203L416 412ZM347 802Q342 768 356 741T397 698T461 683Q497 682 528 697T581 739T608 800Q613 835 599
863T557 906T494 922Q458 922 426 907T373 865T347 802ZM434 800Q435 813 444 824T464 841T488 847Q505 846 514 833T522 802Q520 790 512 780T491 763T467 757Q450 757 441 770T434 800Z" />
<glyph unicode="&#xc6;" horiz-adv-x="1089" d="M272 133L574 132L605 310H311L272 133ZM523 700L-14 0H235L700 658L523 700ZM612 0H996L1023 158H638L612 0ZM718 542H1089L1116 700H523L718 542ZM661 287H1026L1053 440H687L661 287ZM642 700L523 0H729L849 700H642Z" />
<glyph unicode="&#xc7;" horiz-adv-x="685" d="M273 350Q280 391 300 424T351 483T419 520T497 534Q539 534 572 522T631 490T678 443L709 650Q666 681 618 699T504 718Q418 718 345 691T211 615T112 498T63 350Q51 271 69 205T131 88T240 10T389 -18Q458 -18
510 1T610 51L639 256Q612 233 579 212T508 179T423 167Q383 167 353 180T302 219T274 278T273 350ZM319 44L202 -157Q227 -148 253 -145T295 -142Q305 -142 318 -144T340 -153T348 -172Q347 -184 337 -192T313 -203T285 -207Q268 -207 246 -200T206 -182L148 -257Q184
-278 222 -288T303 -298Q337 -298 369 -285T425 -247T454 -186Q457 -155 447 -132T416 -96T371 -80Q361 -80 351 -81T331 -84L446 39L319 44Z" />
<glyph unicode="&#xc8;" horiz-adv-x="601" d="M170 0H515L543 158H197L170 0ZM263 543L608 542L636 700H290L263 543ZM219 287H545L572 440H246L219 287ZM161 700L42 0H224L345 700H161ZM273 939L426 786L524 830L403 993L273 939Z" />
<glyph unicode="&#xc9;" horiz-adv-x="601" d="M170 0H515L543 158H197L170 0ZM263 543L608 542L636 700H290L263 543ZM219 287H545L572 440H246L219 287ZM161 700L42 0H224L345 700H161ZM603 933L481 992L312 836L406 787L603 933Z" />
<glyph unicode="&#xca;" horiz-adv-x="601" d="M170 0H515L543 158H197L170 0ZM263 543L608 542L636 700H290L263 543ZM219 287H545L572 440H246L219 287ZM161 700L42 0H224L345 700H161ZM435 888L525 794L578 833L441 976L264 838L310 794L435 888Z" />
<glyph unicode="&#xcb;" horiz-adv-x="601" d="M170 0H515L543 158H197L170 0ZM263 543L608 542L636 700H290L263 543ZM219 287H545L572 440H246L219 287ZM161 700L42 0H224L345 700H161ZM458 874Q452 835 477 810T542 783Q581 783 613 808T651 872Q656 910 631
936T566 962Q528 962 496 938T458 874ZM208 874Q202 835 227 810T293 783Q331 783 363 808T400 872Q405 910 380 936T316 962Q277 962 245 938T208 874Z" />
<glyph unicode="&#xcc;" horiz-adv-x="332" d="M161 700L42 0H237L357 700H161ZM126 939L278 786L376 830L255 993L126 939Z" />
<glyph unicode="&#xcd;" horiz-adv-x="332" d="M161 700L42 0H237L357 700H161ZM455 933L335 992L165 836L257 787L455 933Z" />
<glyph unicode="&#xce;" horiz-adv-x="332" d="M161 700L42 0H237L357 700H161ZM291 874L370 786L459 845L297 988L96 850L180 786L291 874Z" />
<glyph unicode="&#xcf;" horiz-adv-x="332" d="M161 700L42 0H237L357 700H161ZM317 870Q311 832 337 806T401 779Q440 779 471 804T509 868Q513 906 488 932T424 958Q386 958 354 934T317 870ZM67 870Q62 832 87 806T152 779Q190 779 223 804T261 868Q265 906
239 932T175 958Q137 958 104 934T67 870Z" />
<glyph unicode="&#xd0;" horiz-adv-x="727" d="M29 300H387L405 409H48L29 300ZM161 700L42 0H241L361 700H161ZM303 0Q416 1 506 44T655 165T731 350Q746 454 711 532T598 655T411 700H290L260 531L385 530Q423 529 453 517T503 484T530 429T531 350Q523 303
503 270T453 215T388 182T313 170H200L169 0H303Z" />
<glyph unicode="&#xd1;" horiz-adv-x="775" d="M616 700L554 344L167 733L41 0H225L287 356L677 -33L802 700H616ZM270 848L339 777Q343 786 350 797T366 817T393 827Q417 828 437 816T479 789T524 773Q557 771 585 785T637 819T674 859L607 945Q590 926 571 909T529
892Q511 891 496 898T467 916T438 935T402 944Q368 944 343 930T300 895T270 848Z" />
<glyph unicode="&#xd2;" horiz-adv-x="806" d="M265 350Q272 389 290 424T336 485T399 527T476 542Q516 541 543 525T587 482T608 421T607 350Q599 311 581 276T536 215T474 173T400 159Q358 159 330 175T286 218T265 279T265 350ZM63 350Q52 273 69 206T128 86T233
4T379 -26Q460 -26 533 2T665 82T760 202T810 350Q821 427 803 494T743 611T638 689T495 718Q412 718 340 691T209 614T112 497T63 350ZM384 939L537 786L635 830L514 993L384 939Z" />
<glyph unicode="&#xd3;" horiz-adv-x="806" d="M265 350Q272 389 290 424T336 485T399 527T476 542Q516 541 543 525T587 482T608 421T607 350Q599 311 581 276T536 215T474 173T400 159Q358 159 330 175T286 218T265 279T265 350ZM63 350Q52 273 69 206T128 86T233
4T379 -26Q460 -26 533 2T665 82T760 202T810 350Q821 427 803 494T743 611T638 689T495 718Q412 718 340 691T209 614T112 497T63 350ZM709 933L589 992L419 836L512 787L709 933Z" />
<glyph unicode="&#xd4;" horiz-adv-x="806" d="M265 350Q272 389 290 424T336 485T399 527T476 542Q516 541 543 525T587 482T608 421T607 350Q599 311 581 276T536 215T474 173T399 159Q358 159 330 175T286 218T264 279T265 350ZM63 350Q52 273 69 206T128 86T233
4T379 -26Q460 -26 533 2T665 82T760 202T810 350Q821 427 804 494T744 611T638 689T494 718Q413 718 340 691T209 614T112 497T63 350ZM538 888L628 794L681 833L545 976L368 838L414 794L538 888Z" />
<glyph unicode="&#xd5;" horiz-adv-x="806" d="M265 350Q272 389 290 424T336 485T399 527T476 542Q516 541 543 525T587 482T608 421T607 350Q599 311 581 276T536 215T474 173T399 159Q358 159 330 175T286 218T264 279T265 350ZM63 350Q52 273 69 206T128 86T233
4T379 -26Q460 -26 533 2T665 82T760 202T810 350Q821 427 804 494T744 611T638 689T494 718Q413 718 340 691T209 614T112 497T63 350ZM376 852L426 813Q430 822 437 833T456 854T486 864Q505 864 521 853T554 829T595 816Q619 815 640 826T679 853T708 887L665
934Q650 916 634 901T600 885Q583 884 571 891T546 908T521 925T487 933Q468 933 443 922T397 893T376 852Z" />
<glyph unicode="&#xd6;" horiz-adv-x="806" d="M265 350Q272 389 290 424T336 485T399 527T476 542Q516 541 543 525T587 482T608 421T607 350Q599 311 581 276T536 215T474 173T400 159Q358 159 330 175T286 218T265 279T265 350ZM63 350Q52 273 69 206T128 86T233
4T379 -26Q460 -26 533 2T665 82T760 202T810 350Q821 427 803 494T743 611T638 689T495 718Q412 718 340 691T209 614T112 497T63 350ZM553 871Q548 832 573 806T638 779Q677 779 709 804T746 868Q751 906 726 932T661 958Q622 958 590 934T553 871ZM303 871Q298
832 323 806T388 779Q427 779 459 804T497 868Q501 906 476 932T413 958Q373 958 341 934T303 871Z" />
<glyph unicode="&#xd7;" horiz-adv-x="578" d="M118 -3L293 153L412 -3L531 99L402 251L583 403L494 513L319 358L199 513L81 412L210 259L29 107L118 -3Z" />
<glyph unicode="&#xd8;" horiz-adv-x="766" d="M265 350Q272 390 290 425T336 486T399 527T475 542Q515 541 543 525T587 484T607 423T607 350Q599 310 581 275T536 214T474 173T399 159Q358 159 330 175T286 217T264 278T265 350ZM63 350Q52 273 69 206T128 87T234
4T379 -26Q460 -26 533 2T664 82T760 202T810 350Q821 427 804 494T744 610T638 689T494 718Q413 718 340 691T209 614T113 498T63 350ZM778 758L22 -2L88 -57L847 698L778 758Z" />
<glyph unicode="&#xd9;" horiz-adv-x="701" d="M157 700L77 230Q69 167 83 117T131 34T214 -16T325 -34Q386 -34 441 -17T539 33T611 116T652 230L731 700H540L461 247Q455 218 440 194T401 154T344 140Q311 140 294 155T272 195T269 246L349 700H157ZM317 931L470
778L568 822L448 985L317 931Z" />
<glyph unicode="&#xda;" horiz-adv-x="701" d="M157 700L77 230Q69 167 83 117T131 34T214 -16T325 -34Q386 -34 441 -17T539 33T611 116T652 230L731 700H540L461 247Q455 218 440 194T401 154T344 140Q311 140 294 155T272 195T269 246L349 700H157ZM650 925L529
984L359 828L452 779L650 925Z" />
<glyph unicode="&#xdb;" horiz-adv-x="701" d="M157 700L77 230Q69 167 83 117T131 34T214 -16T325 -34Q386 -34 441 -17T539 33T611 116T652 230L731 700H540L461 247Q455 217 440 193T401 154T344 140Q311 140 294 155T272 194T269 246L349 700H157ZM476 860L545
777L674 857L492 999L268 863L378 778L476 860Z" />
<glyph unicode="&#xdc;" horiz-adv-x="701" d="M157 700L77 230Q69 167 83 117T131 34T214 -16T325 -34Q386 -34 441 -17T539 33T611 116T652 230L731 700H540L461 247Q455 217 440 193T401 154T344 140Q311 140 294 155T272 194T269 246L349 700H157ZM525 871Q519
832 544 806T609 779Q647 779 679 804T717 868Q722 906 697 932T633 958Q594 958 562 934T525 871ZM228 871Q223 832 248 806T312 779Q352 779 383 804T420 868Q425 906 400 932T336 958Q297 958 265 934T228 871Z" />
<glyph unicode="&#xdd;" horiz-adv-x="670" d="M634 925L513 984L343 828L437 779L634 925ZM543 700L384 460L307 700H91L260 285L210 0H407L453 276L771 700H543Z" />
<glyph unicode="&#xde;" horiz-adv-x="611" d="M169 700L49 0H214L334 700H169ZM228 436H366Q397 435 418 428T450 402T455 355Q450 324 432 307T388 282T328 273H202L175 124H314Q399 125 465 151T571 228T624 355Q635 428 609 479T523 557T381 585H255L228 436Z" />
<glyph unicode="&#xdf;" horiz-adv-x="614" d="M398 -12Q443 -12 483 4T554 49T602 115T620 197Q620 233 611 257T589 297T560 325T531 346T508 366T499 393Q499 408 511 423T544 456T582 495T614 545T627 613Q627 667 597 709T515 775T398 799Q304 799 245 767T152
676T105 536L13 -2H187L278 539Q283 573 296 596T330 631T380 643Q399 643 414 637T437 614T446 575Q446 548 433 528T401 489T364 455T332 421T318 378Q318 357 327 342T350 316T379 293T408 268T430 238T440 199Q440 177 430 160T402 134T360 124Q346 124 329
127T295 138T265 152L241 20Q257 10 284 3T342 -8T398 -12Z" />
<glyph unicode="&#xe0;" horiz-adv-x="545" d="M187 138Q189 152 201 164T231 182T268 188Q300 189 324 179T369 153L380 232Q363 245 340 255T288 271T230 277Q178 276 131 260T53 210T15 131Q9 85 27 54T80 7T163 -9Q210 -9 247 8T311 56T347 129L340 188Q332
160 317 140T279 108T231 99Q218 99 208 103T191 116T187 138ZM144 308Q161 316 185 325T238 340T296 345Q318 344 331 337T352 316T357 284L306 0H469L524 322Q530 374 503 407T428 457T325 475Q265 475 210 459T106 424L144 308ZM196 687L348 535L446 578L325
741L196 687Z" />
<glyph unicode="&#xe1;" horiz-adv-x="545" d="M187 138Q189 152 201 164T231 182T268 188Q300 189 324 179T369 153L380 232Q363 245 340 255T288 271T230 277Q178 276 131 260T53 210T15 131Q9 85 27 54T80 7T163 -9Q210 -9 247 8T311 56T347 129L340 188Q332
160 317 140T279 108T231 99Q218 99 208 103T191 116T187 138ZM144 308Q161 316 185 325T238 340T296 345Q318 344 331 337T352 316T357 284L306 0H469L524 322Q530 374 503 407T428 457T325 475Q265 475 210 459T106 424L144 308ZM539 682L419 740L248 584L342
536L539 682Z" />
<glyph unicode="&#xe2;" horiz-adv-x="545" d="M187 138Q189 152 201 164T231 182T268 188Q300 189 324 179T369 153L380 232Q363 245 340 255T288 271T230 277Q178 276 131 260T53 210T15 131Q9 85 27 54T80 7T163 -9Q210 -9 247 8T311 56T347 129L340 188Q332
160 317 140T279 108T231 99Q218 99 208 103T191 116T187 138ZM144 308Q161 316 185 325T238 340T296 345Q318 344 331 337T352 316T357 284L306 0H469L524 322Q530 374 503 407T428 457T325 475Q265 475 210 459T106 424L144 308ZM358 617L427 534L558 612L373
754L152 618L262 535L358 617Z" />
<glyph unicode="&#xe3;" horiz-adv-x="545" d="M187 138Q189 152 201 164T231 182T268 188Q300 189 324 179T369 153L380 232Q363 245 340 255T288 271T230 277Q178 276 131 260T53 210T15 131Q9 85 27 54T80 7T163 -9Q210 -9 247 8T311 56T347 129L340 188Q332
160 317 140T279 108T231 99Q218 99 208 103T191 116T187 138ZM144 308Q161 316 185 325T238 340T296 345Q318 344 331 337T352 316T357 284L306 0H469L524 322Q530 374 503 407T428 457T325 475Q265 475 210 459T106 424L144 308ZM152 610L221 540Q225 549 232
560T249 580T275 590Q298 592 319 579T362 552T408 537Q439 535 468 548T520 582T556 623L490 708Q473 688 455 672T414 654Q395 653 381 661T352 679T323 697T287 706Q253 706 228 692T182 656T152 610Z" />
<glyph unicode="&#xe4;" horiz-adv-x="545" d="M187 138Q189 152 201 164T231 182T268 188Q300 189 324 179T369 153L380 232Q363 245 340 255T288 271T230 277Q178 276 131 260T53 210T15 131Q9 85 27 54T80 7T163 -9Q210 -9 247 8T311 56T347 129L340 188Q332
160 317 140T279 108T231 99Q218 99 208 103T191 116T187 138ZM144 308Q161 316 185 325T238 340T296 345Q318 344 331 337T352 316T357 284L306 0H469L524 322Q530 374 503 407T428 457T325 475Q265 475 210 459T106 424L144 308ZM385 626Q380 587 405 562T469
536Q508 535 539 560T576 623Q582 662 557 688T492 714Q454 715 422 690T385 626ZM135 626Q129 587 155 562T219 536Q258 535 290 560T327 623Q332 662 307 688T243 714Q204 715 172 690T135 626Z" />
<glyph unicode="&#xe5;" horiz-adv-x="545" d="M187 138Q189 152 201 164T231 182T268 188Q300 189 324 179T369 153L380 232Q363 245 340 255T288 271T230 277Q178 276 131 260T53 210T15 131Q9 85 27 54T80 7T163 -9Q210 -9 247 8T311 56T347 129L340 188Q332
160 317 140T279 108T231 99Q218 99 208 103T191 116T187 138ZM144 308Q161 316 185 325T238 340T296 345Q318 344 331 337T352 316T357 284L306 0H469L524 322Q530 374 503 407T428 457T325 475Q265 475 210 459T106 424L144 308ZM232 656Q227 621 240 594T282
551T345 536Q382 535 412 550T464 592T490 654Q495 688 481 715T440 758T377 774Q341 774 310 759T257 717T232 656ZM318 654Q320 666 328 677T348 695T371 701Q388 700 397 686T404 656Q403 643 395 633T374 615T350 609Q333 610 325 623T318 654Z" />
<glyph unicode="&#xe6;" horiz-adv-x="912" d="M191 -10Q276 -10 335 18T421 100L407 101Q424 45 471 18T601 -10Q691 -10 759 25T877 132L724 163Q707 139 677 125T612 110Q582 110 565 122T541 156T536 213L515 194H881Q884 201 887 215T891 246Q902 317 883
367T817 444T697 470Q647 470 603 457T524 419T461 358L476 361Q479 420 442 447T331 475Q280 475 225 462T104 423L142 308Q162 318 190 326T246 340T296 346Q333 346 349 329T361 279L351 222H430Q366 253 323 265T234 277Q174 277 127 258T50 206T14 129Q4 64
49 27T191 -10ZM241 98Q212 98 200 107T189 138Q191 153 200 165T226 182T266 188Q293 188 319 182T367 160L344 187L342 139L349 184Q341 142 312 120T241 98ZM540 234Q548 276 562 304T598 346T651 361Q677 361 691 350T710 318T711 266Q711 263 711 261T707
250L735 283H528L540 234Z" />
<glyph unicode="&#xe7;" horiz-adv-x="484" d="M215 230Q221 259 241 283T288 322T348 336Q370 336 390 329T427 308T458 272L482 436Q454 451 421 460T343 470Q266 470 201 440T93 357T40 231Q29 159 56 106T140 21T272 -10Q317 -10 352 -1T416 26L439 187Q421
168 399 154T353 132T302 125Q271 126 251 139T221 176T215 230ZM204 60L88 -142Q114 -133 139 -129T180 -126Q190 -126 203 -128T226 -137T233 -155Q232 -167 222 -175T197 -187T170 -192Q153 -192 132 -185T92 -165L34 -241Q71 -262 107 -272T188 -281Q221 -281
254 -268T310 -230T339 -170Q343 -139 332 -116T302 -80T257 -65Q247 -65 236 -65T216 -68L333 55L204 60Z" />
<glyph unicode="&#xe8;" horiz-adv-x="573" d="M130 195H550Q552 207 553 218T557 239Q565 309 543 360T469 441T339 470Q266 470 209 446T111 380T52 279Q48 267 45 255T40 230Q31 160 56 106T137 21T274 -10Q336 -10 385 8T473 57T542 131L388 163Q376 148 359
136T322 117T278 111Q250 113 234 128T214 170T213 230L220 252Q225 281 239 306T274 346T326 361Q348 360 359 349T375 321T380 284L143 283L130 195ZM214 685L367 532L464 577L343 741L214 685Z" />
<glyph unicode="&#xe9;" horiz-adv-x="573" d="M130 195H550Q552 207 553 218T557 239Q565 309 543 360T469 441T339 470Q266 470 209 446T111 380T52 279Q48 267 45 255T40 230Q31 160 56 106T137 21T274 -10Q336 -10 385 8T473 57T542 131L388 163Q376 148 359
136T322 117T278 111Q250 113 234 128T214 170T213 230L220 252Q225 281 239 306T274 346T326 361Q348 360 359 349T375 321T380 284L143 283L130 195ZM553 680L432 739L263 583L357 533L553 680Z" />
<glyph unicode="&#xea;" horiz-adv-x="573" d="M130 195H550Q552 207 553 218T557 239Q565 309 543 360T469 441T339 470Q266 470 209 446T111 380T52 279Q48 267 45 255T40 230Q31 160 56 106T137 21T274 -10Q336 -10 385 8T473 57T542 131L388 163Q376 148 359
136T322 117T278 111Q250 113 234 128T214 170T213 230L220 252Q225 281 239 306T274 346T326 361Q348 360 359 349T375 321T380 284L143 283L130 195ZM373 613L441 531L570 609L388 752L166 615L276 532L373 613Z" />
<glyph unicode="&#xeb;" horiz-adv-x="573" d="M130 195H550Q552 207 553 218T557 239Q565 309 543 360T469 441T339 470Q266 470 209 446T111 380T52 279Q48 267 45 255T40 230Q31 160 56 106T137 21T274 -10Q336 -10 385 8T473 57T542 131L388 163Q376 148 359
136T322 117T278 111Q250 113 234 128T214 170T213 230L220 252Q225 281 239 306T274 346T326 361Q348 360 359 349T375 321T380 284L143 283L130 195ZM398 622Q393 583 418 558T483 533Q521 532 553 556T590 619Q596 658 571 684T506 710Q468 711 436 686T398
622ZM148 622Q143 583 168 558T233 533Q272 532 304 556T341 619Q346 658 321 684T257 710Q218 711 186 686T148 622Z" />
<glyph unicode="&#xec;" horiz-adv-x="273" d="M105 460L26 0H192L272 460H105ZM46 687L198 534L297 579L176 742L46 687Z" />
<glyph unicode="&#xed;" horiz-adv-x="273" d="M105 460L26 0H192L272 460H105ZM398 681L278 741L108 585L201 535L398 681Z" />
<glyph unicode="&#xee;" horiz-adv-x="273" d="M105 460L26 0H192L272 460H105ZM218 614L286 532L416 612L233 754L11 618L121 533L218 614Z" />
<glyph unicode="&#xef;" horiz-adv-x="273" d="M105 460L26 0H192L272 460H105ZM244 628Q239 589 264 563T330 537Q368 537 400 562T438 625Q443 664 418 690T354 716Q315 716 282 691T244 628ZM-4 628Q-10 589 16 563T80 537Q118 537 150 562T188 625Q193 664
168 690T103 716Q65 716 33 691T-4 628Z" />
<glyph unicode="&#xf0;" horiz-adv-x="641" d="M304 -18Q373 -18 431 5T531 69T597 163T621 279Q621 330 611 377T578 472T521 567T437 666T324 772L192 690Q245 654 288 615T367 534T430 443T479 332L519 331Q474 405 422 441T302 478Q250 478 205 458T126 403T73
320T54 217Q54 146 87 93T177 11T304 -18ZM318 135Q293 135 276 146T248 178T237 221Q237 243 245 264T270 301T306 325T350 334Q375 334 393 323T421 292T431 247Q431 225 423 206T399 170T363 144T318 135ZM212 508L582 623L565 680L196 566L212 508Z" />
<glyph unicode="&#xf1;" horiz-adv-x="573" d="M275 460H103L23 0H196L275 460ZM365 280L315 0H494L545 298Q551 349 540 388T496 449T407 472Q347 472 308 444T246 370T214 273L244 281Q248 301 259 318T287 345T325 355Q346 353 354 343T364 315T365 280ZM163
608L229 536Q233 545 240 556T258 575T286 585Q309 587 329 575T370 548T417 533Q448 531 477 545T529 579T566 620L499 704Q482 684 464 669T423 652Q404 651 390 658T361 676T331 695T296 704Q261 704 236 690T193 654T163 608Z" />
<glyph unicode="&#xf2;" horiz-adv-x="584" d="M40 231Q30 160 58 106T141 21T270 -10Q345 -10 409 20T516 104T570 230Q580 301 553 355T470 440T341 472Q266 472 202 442T94 357T40 231ZM217 230Q221 258 237 281T276 317T327 330Q353 329 369 316T391 280T394
231Q390 203 374 180T335 143T284 131Q258 131 242 145T219 181T217 230ZM228 687L381 534L478 579L357 742L228 687Z" />
<glyph unicode="&#xf3;" horiz-adv-x="584" d="M40 231Q30 160 58 106T141 21T270 -10Q345 -10 409 20T516 104T570 230Q580 301 553 355T470 440T341 472Q266 472 202 442T94 357T40 231ZM217 230Q221 258 237 281T276 317T327 330Q353 329 369 316T391 280T394
231Q390 203 374 180T335 143T284 131Q258 131 242 145T219 181T217 230ZM540 681L419 741L248 585L342 535L540 681Z" />
<glyph unicode="&#xf4;" horiz-adv-x="584" d="M40 231Q30 160 58 106T141 21T270 -10Q345 -10 409 20T516 104T570 230Q580 301 553 355T470 440T341 472Q266 472 202 442T94 357T40 231ZM217 230Q221 258 237 281T276 317T327 330Q353 329 369 316T391 280T394
231Q390 203 374 180T335 143T284 131Q258 131 242 145T219 181T217 230ZM375 618L444 533L573 613L391 756L167 619L279 534L375 618Z" />
<glyph unicode="&#xf5;" horiz-adv-x="584" d="M40 231Q30 160 58 106T141 21T270 -10Q345 -10 409 20T516 104T570 230Q580 301 553 355T470 440T341 472Q265 472 201 442T94 357T40 231ZM217 230Q221 258 237 281T276 317T327 330Q353 329 369 316T391 280T394
231Q390 203 374 180T335 143T284 131Q258 131 242 145T219 181T217 230ZM169 608L237 536Q241 545 248 556T265 575T291 585Q314 587 335 575T377 548T423 533Q454 531 483 545T535 579T572 620L505 704Q488 684 470 669T428 652Q410 651 395 658T367 677T338
695T301 704Q274 704 244 690T191 654T169 608Z" />
<glyph unicode="&#xf6;" horiz-adv-x="584" d="M40 231Q30 160 58 106T142 21T270 -10Q345 -10 409 20T516 104T570 230Q580 301 553 355T470 440T341 472Q267 472 202 442T94 357T40 231ZM217 230Q221 258 237 280T276 316T327 330Q353 329 369 315T391 279T394
231Q390 203 374 180T335 143T284 131Q258 131 242 145T219 181T217 230ZM401 628Q396 589 421 563T486 537Q524 537 556 562T594 625Q599 664 574 690T510 716Q471 716 439 691T401 628ZM151 628Q146 589 171 563T236 537Q274 537 306 562T344 625Q350 664 324
690T259 716Q221 716 189 691T151 628Z" />
<glyph unicode="&#xf7;" horiz-adv-x="625" d="M281 585Q277 559 288 535T320 496T372 481Q401 481 427 495T469 532T489 583Q493 611 483 634T450 673T399 689Q370 689 344 675T302 637T281 585ZM199 107Q196 80 206 57T239 19T291 4Q319 3 344 17T387 55T408
106Q412 133 402 156T369 195T318 210Q289 210 263 196T220 158T199 107ZM33 270H631L658 424H60L33 270Z" />
<glyph unicode="&#xf8;" horiz-adv-x="529" d="M40 231Q30 157 58 103T141 20T270 -10Q344 -10 407 19T515 101T570 230Q580 303 552 357T468 440T341 470Q267 470 203 442T94 359T40 231ZM201 230Q206 259 224 283T271 323T328 338Q357 337 377 322T405 282T409
231Q405 198 386 174T340 136T282 123Q254 123 233 137T204 175T201 230ZM502 508L38 -14L96 -51L562 469L502 508Z" />
<glyph unicode="&#xf9;" horiz-adv-x="573" d="M323 0H494L574 460H402L323 0ZM233 180L283 460H103L52 162Q46 111 57 72T100 11T190 -11Q249 -10 289 17T352 91T384 187L354 180Q350 159 339 142T310 115T273 107Q252 108 243 119T233 145T233 180ZM228 687L381
534L479 579L358 742L228 687Z" />
<glyph unicode="&#xfa;" horiz-adv-x="573" d="M323 0H494L574 460H402L323 0ZM233 180L283 460H103L52 162Q46 111 57 72T100 11T190 -11Q249 -10 289 17T352 91T384 187L354 180Q350 159 339 142T310 115T273 107Q252 108 243 119T233 145T233 180ZM525 681L406
741L237 585L329 535L525 681Z" />
<glyph unicode="&#xfb;" horiz-adv-x="573" d="M323 0H494L574 460H402L323 0ZM233 180L283 460H103L52 162Q46 111 57 72T100 11T190 -11Q249 -10 289 17T352 91T384 187L354 180Q350 159 339 142T310 115T273 107Q252 108 243 119T233 145T233 180ZM369 618L436
533L567 613L383 756L162 619L271 534L369 618Z" />
<glyph unicode="&#xfc;" horiz-adv-x="573" d="M323 0H494L574 460H402L323 0ZM233 180L283 460H103L52 162Q46 111 57 72T100 11T190 -11Q249 -10 289 17T352 91T384 187L354 180Q350 159 339 142T310 115T273 107Q252 108 243 119T233 145T233 180ZM395 627Q390
587 416 561T479 535Q518 535 550 560T588 624Q592 662 567 688T503 714Q465 714 433 690T395 627ZM146 627Q141 587 166 561T230 535Q269 535 300 560T337 624Q343 662 317 688T253 714Q215 714 183 690T146 627Z" />
<glyph unicode="&#xfd;" horiz-adv-x="529" d="M598 460H420L212 89L304 88L222 460H41L168 33L16 -219H190L598 460ZM522 681L402 741L233 585L325 535L522 681Z" />
<glyph unicode="&#xfe;" horiz-adv-x="611" d="M158 -220L329 780H157L-14 -220H158ZM596 230Q605 296 585 350T523 437T422 470Q376 470 337 451T266 400T215 324T189 231Q183 183 190 140T217 63T271 10T350 -10Q409 -10 462 21T551 106T596 230ZM418 232Q413
203 396 179T354 141T303 128Q284 128 270 136T247 159T234 192T233 230Q237 252 247 270T273 303T308 326T347 334Q373 334 389 319T413 280T418 232Z" />
<glyph unicode="&#xff;" horiz-adv-x="529" d="M598 460H420L212 89L304 88L222 460H41L168 33L16 -219H190L598 460ZM373 622Q367 583 392 558T457 533Q495 532 527 556T565 619Q570 658 545 684T481 710Q443 711 411 686T373 622ZM123 622Q117 583 143 558T208
533Q246 532 277 556T315 619Q320 658 295 684T231 710Q192 711 160 686T123 622Z" />
<glyph unicode="&#x2013;" horiz-adv-x="773" d="M67 164H700L726 312H93L67 164Z" />
<glyph unicode="&#x2014;" horiz-adv-x="927" d="M67 164H858L883 312H93L67 164Z" />
<glyph unicode="&#x2018;" horiz-adv-x="338" d="M289 439L385 700H259L112 440L289 439Z" />
<glyph unicode="&#x2019;" horiz-adv-x="338" d="M190 700L94 440H220L366 700H190Z" />
<glyph unicode="&#x201a;" horiz-adv-x="338" d="M94 80L-2 -180H124L270 80H94Z" />
<glyph unicode="&#x201c;" horiz-adv-x="570" d="M289 439L385 700H259L112 440L289 439ZM522 439L618 700H492L345 440L522 439Z" />
<glyph unicode="&#x201d;" horiz-adv-x="570" d="M190 700L94 440H220L366 700H190ZM423 700L327 440H453L600 700H423Z" />
<glyph unicode="&#x201e;" horiz-adv-x="570" d="M89 80L-7 -180H119L265 80H89ZM322 80L226 -180H352L499 80H322Z" />
<glyph unicode="&#x2022;" horiz-adv-x="305" d="M105 454Q101 426 112 402T145 364T197 350Q227 350 252 364T294 401T315 453Q319 480 307 503T273 541T221 556Q191 556 166 542T125 505T105 454Z" />
<glyph unicode="&#x2039;" horiz-adv-x="339" d="M166 256L346 442L250 515L40 260L167 -5L279 62L166 256Z" />
<glyph unicode="&#x203a;" horiz-adv-x="339" d="M206 254L27 69L124 -4L333 250L207 516L94 448L206 254Z" />
</font>
</defs>
</svg>
